<svg xmlns="http://www.w3.org/2000/svg" fill-rule="evenodd" clip-rule="evenodd" enable-background="new 0 0 168 168" image-rendering="optimizeQuality" shape-rendering="geometricPrecision" text-rendering="geometricPrecision" viewBox="0 0 700 700"><path fill="#e2e2e2" d="M194.473 386.032l-92.4698 0c-4.42087 0-7.99962-3.57874-7.99962-7.99962l0-52.5414c0-4.41969 3.57874-7.99962 7.99962-7.99962l92.4698 0 0 68.5406zM598.002 386.032l-202.791 0 0-68.5406 202.786 0c4.42087 0 7.99962 3.57993 7.99962 7.99962l0 52.5414c0 4.42087-3.57874 7.99962-7.99489 7.99962zM162.764 594.546l-46.6323 0c-4.41969 0-7.99962-3.57874-7.99962-7.99962l0-190.516 62.6327 0 0 190.52c0 4.41615-3.57993 7.99489-8.0008 7.99489zM583.868 594.546l-46.6323 0c-4.41969 0-7.99962-3.57874-7.99962-7.99962l0-190.516 62.6327 0 0 190.52c0 4.41615-3.58347 7.99489-8.0008 7.99489zM366.704 418.443l-143.723 0c-10.2047 0-18.5091-8.30316-18.5091-18.5079l0-127.306c0-10.2036 8.30434-18.5079 18.5091-18.5079l143.723 0c10.2047 0 18.5079 8.30434 18.5079 18.5079l0 127.303c0 10.2083-8.30316 18.5114-18.5079 18.5114z" class="color000000 svgShape"/><path fill="#e2e2e2" d="M343.555 445.526l-96.8741 0c-4.42087,0 -7.99962,-3.57993 -7.99962,-8.0008l0 -27.0874c0,-4.42087 3.57874,-7.99962 7.99962,-7.99962l96.8741 0.0011811c4.42087,0 7.99962,3.57993 7.99962,7.99962l0 27.0886c0,4.41497 -3.57874,7.99843 -7.99962,7.99843z" class="color000000 svgShape"/><path fill="#e2e2e2" d="M376.942 488.763l-163.649 0c-4.41969 0-7.99962-3.57874-7.99962-7.99962l0-43.2378c0-4.41969 3.57993-7.99962 7.99962-7.99962l163.644 0c4.41969 0 7.99962 3.57993 7.99962 7.99962l0 43.2378c.00472441 4.41733-3.57756 7.99962-7.99489 7.99962zM415.42 277.008c-1.20827 0-2.42481-.270473-3.54922-.829135-2.72481-1.35-4.4504-4.12914-4.4504-7.17048l0-25.174-5.62087 0c-13.5331 0-24.5457-11.0126-24.5457-24.5469l0-89.2867c0-13.5343 11.0126-24.5469 24.5457-24.5469l144.436.00236221c13.5366 0 24.5492 11.0126 24.5492 24.5457l0 89.2879c0 13.5331-11.0126 24.5457-24.5492 24.5457l-84.5954-.0011811-41.3741 31.5366c-1.41614 1.08307-3.1252 1.63701-4.84607 1.63701zm59.9127-57.4418c-4.42087 0-7.99962-3.57874-7.99962-7.99962l0-39.4453c0-4.42087 3.57874-7.99962 7.99962-7.99962 4.42087 0 7.99962 3.57874 7.99962 7.99962l0 39.4453c0 4.42087-3.57874 7.99962-7.99962 7.99962zm0-62.9316c-4.42087 0-7.99962-3.57874-7.99962-7.99962l0-10.9122c0-4.41969 3.57874-7.99962 7.99962-7.99962 4.42087 0 7.99962 3.57993 7.99962 7.99962l0 10.9122c0 4.41615-3.57874 7.99962-7.99962 7.99962z" class="color000000 svgShape"/><path fill="#e2e2e2" d="M360.571 582.568l-27.2587 0c-4.41969 0-7.99962-3.57993-7.99962-8.0008l0-93.8068c0-4.41969 3.57993-7.99962 7.99962-7.99962l27.2587 0c4.41969 0 7.99962 3.57993 7.99962 7.99962l0 93.8068c0 4.42087-3.57756 8.0008-7.99962 8.0008zM256.93 582.568l-27.2622 0c-4.42087 0-7.99962-3.57993-7.99962-8.0008l0-93.8068c0-4.41969 3.57874-7.99962 7.99962-7.99962l27.2622 0c4.42087 0 8.0008 3.57993 8.0008 7.99962l0 93.8068c0 4.42087-3.58347 8.0008-8.0008 8.0008z" class="color000000 svgShape"/></svg>