<svg xmlns="http://www.w3.org/2000/svg" width="655.359" height="655.359" fill-rule="evenodd" clip-rule="evenodd" image-rendering="optimizeQuality" shape-rendering="geometricPrecision" text-rendering="geometricPrecision" viewBox="0 0 6.827 6.827"><path fill="none" d="M0 0h6.827v6.827H0z"/><path fill="none" d="M.853.853h5.12v5.12H.853z"/><path fill="#0288d1" d="M4.405 1.582l.037-.25a.095.095 0 0 0-.014-.068.063.063 0 0 0-.052-.03H2.308c-.02 0-.04.011-.052.03a.102.102 0 0 0-.014.07l.04.248h2.123z"/><path fill="#039be5" d="M4.657 1.814l.046-.25a.08.08 0 0 0-.018-.069.083.083 0 0 0-.065-.03H2.064a.087.087 0 0 0-.065.03.087.087 0 0 0-.018.07l.05.249h2.626z"/><path fill="#29b6f6" d="M4.98 2.102l.057-.246a.085.085 0 0 0-.017-.072.084.084 0 0 0-.065-.03H1.732a.085.085 0 0 0-.082.106l.059.242h3.27z"/><path fill="#81d4fa" d="M3.406 2.1H1.613a.666.666 0 00-.667.666l.237 1.576 2.223-.01V2.1zM5.341 4.324h.314l.21-1.558A.666.666 0 005.2 2.1H3.406v2.232h.001l1.934-.008z"/><path fill="#0288d1" d="M4.443 4.075a.118.118 0 00.113-.095l.025-.157a.086.086 0 00-.087-.101H3.428c-.031.108-.102.22-.198.248l-.01.015.001.09h1.222zM4.663 3.295l.029-.183c.01-.066-.032-.12-.093-.12H3.271c.038.092.064.202.073.335a.186.186 0 01.064.08H4.54c.059 0 .114-.05.124-.112zM2.186 3.619c.012.097.102.236.165.236a.04.04 0 00.02-.006.855.855 0 00.166.215h.472a.705.705 0 00.143-.219c.008.006.017.01.026.01.062 0 .137-.139.138-.236 0-.1-.008-.182-.074-.182a.118.118 0 00-.025.004c-.005-.287-.08-.672-.52-.672-.41 0-.468.384-.44.67l-.019-.002c-.065 0-.064.083-.052.182zM1.13 4.313a.212.212 0 00-.17.096.318.318 0 00-.053.219l.021.108v.004h4.97l.021-.112a.317.317 0 00-.052-.22.208.208 0 00-.17-.095H1.13zm-.201.427l.162.853h4.645l.162-.853H.928z"/></svg>