<?xml version="1.0" standalone="no"?>
<!DOCTYPE svg PUBLIC "-//W3C//DTD SVG 20010904//EN"
 "http://www.w3.org/TR/2001/REC-SVG-20010904/DTD/svg10.dtd">
<svg version="1.0" xmlns="http://www.w3.org/2000/svg"
 width="200.000000pt" height="200.000000pt" viewBox="0 0 200.000000 200.000000"
 preserveAspectRatio="xMidYMid meet">

<g transform="translate(0.000000,200.000000) scale(0.100000,-0.100000)"
fill="#000000" stroke="none">
<path fill=#fff d="M921 1699 c7 -13 23 -42 37 -64 14 -22 42 -71 63 -110 l39 -70 0 62
c0 59 1 63 26 69 15 4 66 4 114 1 149 -10 252 -78 285 -191 42 -140 -10 -273
-130 -332 -30 -14 -55 -28 -55 -30 0 -1 16 -30 35 -63 l36 -61 36 15 c82 35
164 116 207 205 41 87 49 223 17 312 -28 81 -73 142 -143 194 -93 68 -131 76
-371 82 l-209 4 13 -23z"/>
<path d="M1342 703 c-12 -2 -29 -18 -38 -35 -15 -29 -15 -32 3 -55 10 -14 43
-34 73 -46 45 -18 56 -27 58 -48 2 -21 -3 -29 -28 -39 -26 -11 -37 -10 -70 3
-22 8 -42 12 -45 7 -7 -11 51 -30 95 -30 45 0 70 24 70 68 0 27 -5 35 -32 46
-107 45 -108 45 -108 70 0 35 48 53 88 32 26 -13 31 -14 36 -1 3 10 -6 17 -32
25 -20 5 -39 9 -42 9 -3 -1 -15 -4 -28 -6z"/>
<path d="M460 579 l0 -121 74 4 c62 3 79 7 100 27 57 54 55 135 -5 186 -26 21
-40 25 -100 25 l-69 0 0 -121z m160 75 c28 -24 31 -31 28 -77 -3 -46 -7 -54
-37 -74 -33 -22 -83 -29 -115 -17 -13 5 -16 23 -16 94 0 97 0 98 67 99 31 1
49 -6 73 -25z"/>
<path d="M750 580 l0 -120 85 0 c50 0 85 4 85 10 0 6 -28 10 -64 10 -85 0 -96
5 -96 45 0 41 10 48 80 56 l55 6 -52 2 c-72 2 -83 8 -83 46 0 40 11 45 96 45
36 0 64 4 64 10 0 6 -35 10 -85 10 l-85 0 0 -120z"/>
<path d="M1023 678 c-60 -66 -56 -157 9 -202 29 -21 117 -21 146 0 51 35 67
116 34 167 -30 45 -53 56 -113 57 -45 0 -59 -4 -76 -22z m146 -24 c26 -21 31
-33 31 -69 0 -60 -7 -73 -52 -96 -33 -17 -45 -18 -74 -9 -62 21 -94 95 -64
150 28 52 111 64 159 24z"/>
<path d="M1565 633 c38 -57 45 -76 45 -115 0 -27 5 -48 10 -48 6 0 10 20 10
46 0 36 8 57 38 102 52 78 55 82 43 82 -6 0 -23 -21 -38 -47 -15 -27 -32 -51
-37 -55 -17 -11 -40 8 -66 56 -13 25 -30 46 -38 46 -7 0 7 -29 33 -67z"/>
<path d="M1806 678 c-9 -12 -16 -32 -16 -44 0 -24 43 -64 67 -64 33 0 73 -31
73 -55 0 -36 -38 -52 -89 -37 -47 15 -54 15 -46 2 9 -15 82 -31 109 -24 14 3
32 17 41 31 24 36 12 70 -30 88 -19 8 -51 22 -71 30 -27 12 -35 20 -32 37 4
30 49 46 88 31 20 -8 32 -8 36 -1 10 16 -17 28 -68 28 -37 0 -50 -5 -62 -22z"/>
</g>
</svg>
