<svg xmlns="http://www.w3.org/2000/svg" viewBox="0 0 30 30"><path fill="#e2e2e2" d="M27 4a.5.5 0 0 0-.5.5v1h-1v-1a.5.5 0 1 0-1 0v2c0 .651.42 1.2 1 1.408V22.25a.751.751 0 0 1-1.5 0V20.5c0-.827-.673-1.5-1.5-1.5h-1V2c0-1.103-.897-2-2-2h-13c-1.103 0-2 .897-2 2v23c-1.103 0-2 .897-2 2v2.5a.5.5 0 0 0 .5.5h20a.5.5 0 0 0 .5-.5V27c0-1.103-.897-2-2-2v-5h1a.5.5 0 0 1 .5.5v1.75c0 .965.785 1.75 1.75 1.75s1.75-.785 1.75-1.75V7.908c.58-.207 1-.757 1-1.408v-2A.5.5 0 0 0 27 4zM6.5 2.5A.5.5 0 0 1 7 2h12a.5.5 0 0 1 .5.5v8a.5.5 0 0 1-.5.5H7a.5.5 0 0 1-.5-.5v-8zM10 20a.5.5 0 0 1-.435-.748l4-7a.5.5 0 1 1 .935.248V16H17a.5.5 0 0 1 .435.748l-4 7a.501.501 0 0 1-.935-.248V20H10z" class="color303c42 svgShape"/></svg>