<svg xmlns="http://www.w3.org/2000/svg" viewBox="0 0 64 64"><path fill="#e2e2e2" d="M47.23 4H16.77a5.002 5.002 0 0 0-5 5v46a5.002 5.002 0 0 0 5 5h30.46a5.002 5.002 0 0 0 5-5V9a5.002 5.002 0 0 0-5-5Zm-5.77 34.7h-22.7a1 1 0 0 1 0-2h22.7a1 1 0 0 1 0 2Zm3.78 13.52a1 1 0 0 1 0 2H35.07a1 1 0 0 1 0-2Zm-26.48-9.26h17.48a1 1 0 0 1 0 2H18.76a1 1 0 0 1 0-2Zm26.48-10.53H18.76a1 1 0 0 1 0-2h26.48a1 1 0 0 1 0 2ZM27.01 17.66c0-.23.01-.45.03-.67h-2.18a1 1 0 0 1 0-2h2.57c1.76-5.998 9.422-7.277 12.57-1.7a.987.987 0 0 1-.36 1.36.998.998 0 0 1-1.37-.36 4.746 4.746 0 0 0-8.72.7h3.03a1 1 0 0 1 0 2h-3.53a5.634 5.634 0 0 0 0 1.34h3.53a1 1 0 0 1 0 2h-3.03a4.745 4.745 0 0 0 8.72.7A1.002 1.002 0 0 1 40 22.04c-3.15 5.568-10.813 4.284-12.57-1.71h-2.57a1 1 0 1 1 0-2h2.18c-.02-.22-.03-.44-.03-.67Z" class="color231f20 svgShape"/></svg>