<svg xmlns="http://www.w3.org/2000/svg" viewBox="0 0 24 24"><path fill="#F47920" d="M4.5 10C5.879 10 7 8.878 7 7.5S5.879 5 4.5 5 2 6.122 2 7.5 3.121 10 4.5 10zm15 0c1.379 0 2.5-1.122 2.5-2.5S20.879 5 19.5 5 17 6.122 17 7.5s1.121 2.5 2.5 2.5zm4.5 3.523c0-.835-.414-1.598-1.08-1.991-.799-.471-2.041-1.032-3.42-1.032s-2.621.561-3.42 1.032c-.65.383-1.054 1.122-1.073 1.934C14.096 13.192 13.074 13 12 13s-2.096.192-3.007.466c-.02-.812-.423-1.55-1.073-1.934C7.12 11.06 5.879 10.5 4.5 10.5s-2.621.561-3.42 1.032C.414 11.925 0 12.688 0 13.523V15h5.864A2.997 2.997 0 0 0 5 17.105V19h14v-1.895c0-.804-.32-1.552-.864-2.105H24v-1.477zM12 12c1.93 0 3.5-1.57 3.5-3.5S13.93 5 12 5 8.5 6.57 8.5 8.5 10.07 12 12 12z"/><g fill="#FFF"><circle cx="4.5" cy="7.5" r="2.5" opacity=".1"/><circle cx="12" cy="8.5" r="3.5" opacity=".2"/><path d="M6.625 14.431a13.8 13.8 0 0 1 2.368-.965c-.02-.812-.423-1.55-1.073-1.934C7.12 11.06 5.879 10.5 4.5 10.5s-2.621.561-3.42 1.032C.414 11.925 0 12.688 0 13.523V15h5.864c.22-.224.472-.42.761-.569z" opacity=".1"/><path d="M17.375 14.431C16.116 13.778 14.162 13 12 13s-4.116.778-5.375 1.431A3.001 3.001 0 0 0 5 17.105V19h14v-1.895c0-1.13-.623-2.154-1.625-2.674z" opacity=".2"/></g></svg>