<svg xmlns="http://www.w3.org/2000/svg" enable-background="new 0 0 30 30" viewBox="0 0 30 30"><path fill="#e2e2e2" d="M14.995018 21.5337772c.8057251 0 1.5936279-.1026611 2.359375-.2754517l2.34375 3.171814c.329071.4436741.9545994.537384 1.3984375.2099609.4443359-.3291016.5380859-.9550781.2099609-1.3994141C6.0516858 2.5766525 12.2566977 10.9934845 8.2489243 5.5697889 7.920311 5.1274061 7.2948227 5.031703 6.8504868 5.359828 6.4061508 5.6889296 6.3124008 6.3149061 6.6405258 6.7592421L8.217186 8.892909c-2.6378784 1.6194458-4.6328125 3.7216187-5.472168 4.7008667-.2700195.3099976-.2700195.7699585 0 1.0799561C4.2149887 16.3837528 9.1449814 21.5337772 14.995018 21.5337772zM10.3727036 11.8100233l2.0692139 2.8002319c.1386719.6985474.5874023 1.2823486 1.1957397 1.6182241l2.0825806 2.8182983c-.3007202.0576172-.607666.0969849-.9252319.0969849-2.75 0-5.0100098-2.25-5.0100098-4.999999C9.784996 13.3000135 10.0011215 12.5072279 10.3727036 11.8100233zM14.995018 6.7437391c-1.0500488 0-2.0700073.1700439-3.0500488.4500122l1.5700073 2.1199951c.4100342-.1099854.8400269-.1699829 1.2800293-.1699829 2.75 0 4.9899902 2.2299805 4.9899902 5 0 .960022-.2799683 1.8699942-.75 2.6300039l2.1799927 2.9500122c2.9299927-1.6500244 5.1400146-3.999999 6.0400391-5.0500479.2699585-.3099976.2699585-.7699585 0-1.0799561C25.784996 11.8837538 20.8550034 6.7437391 14.995018 6.7437391z" class="color000000 svgShape"/><path fill="#e2e2e2" d="M17.1750107,14.1437635c0-1.1199951-0.7600098-2.0499878-1.7999878-2.3099976l1.7999878,2.4299927V14.1437635z" class="color000000 svgShape"/></svg>