<svg xmlns="http://www.w3.org/2000/svg" enable-background="new 0 0 60 60" viewBox="0 0 60 60"><path fill="#3b4651" d="M51.0899963,32.9099731C51.0899963,44.539978,41.6299744,54,29.9999695,54
				S8.9100037,44.539978,8.9100037,32.9099731c0-8.6099854,5.1499634-16.2699585,13.1099854-19.5199585
				c0.3099976-0.1199951,0.6599731-0.0900269,0.9400024,0.0999756c0.2799683,0.1900024,0.4400024,0.5,0.4400024,0.8300171v5.4699707
				c0,0.3600464-0.1900024,0.6900024-0.5,0.8600464c-4.3599854,2.539978-7.0700073,7.2299805-7.0700073,12.2599487
				c0,7.8200073,6.3599854,14.1800537,14.1699829,14.1800537s14.1700439-6.3600464,14.1700439-14.1800537
				c0-5.0299683-2.710022-9.7299805-7.0800171-12.2599487c-0.3099976-0.1800537-0.5-0.5100098-0.5-0.8699951v-5.460022
				c0-0.3300171,0.1699829-0.6400146,0.4400024-0.8300171c0.2799683-0.1900024,0.6300049-0.2199707,0.9400024-0.0999756
				C45.9399719,16.6500244,51.0899963,24.3099976,51.0899963,32.9099731z"/><path fill="#2b79c2" d="M25.3999939,26.0999756v-15.5C25.3999939,8.0599976,27.4700012,6,29.9999695,6
				c1.2300415,0,2.3800049,0.4799805,3.25,1.3400269c0.8699951,0.8799438,1.3400269,2.039978,1.3400269,3.2599487v15.5
				c0,2.5400391-2.0599976,4.6000366-4.5900269,4.6000366C27.4700012,30.7000122,25.3999939,28.6400146,25.3999939,26.0999756z"/></svg>