<?xml version="1.0" standalone="no"?>
<!DOCTYPE svg PUBLIC "-//W3C//DTD SVG 20010904//EN"
 "http://www.w3.org/TR/2001/REC-SVG-20010904/DTD/svg10.dtd">
<svg version="1.0" xmlns="http://www.w3.org/2000/svg"
 width="250pt" height="75.000000pt" viewBox="0 0 766.000000 206.000000"
 preserveAspectRatio="xMidYMid meet">

<g transform="translate(0.000000,206.000000) scale(0.100000,-0.100000)"
fill="#ffffff" stroke="none">
<path d="M63 2030 l-63 -29 0 -626 0 -625 348 0 348 0 54 -41 c70 -53 127 -81
220 -111 107 -33 301 -33 410 1 205 63 324 190 366 391 25 120 0 280 -62 387
-59 103 -262 188 -474 199 -130 7 -224 -11 -330 -63 -171 -83 -279 -268 -280
-475 l0 -58 -190 0 -189 0 -3 526 c-3 507 -4 526 -22 540 -30 21 -64 17 -133
-16z m1301 -630 c148 -57 245 -224 216 -367 -21 -100 -154 -236 -271 -279 -24
-8 -88 -18 -141 -21 -95 -6 -100 -5 -162 26 -70 34 -161 125 -193 191 -24 51
-29 174 -9 242 26 91 120 181 229 220 75 27 248 21 331 -12z"/>
<path d="M3000 2025 c-45 -23 -46 -26 -63 -97 -21 -88 -22 -148 -3 -173 12
-17 18 -18 69 -6 34 7 58 19 62 29 12 28 35 174 35 225 0 45 -1 47 -27 47 -16
-1 -48 -12 -73 -25z"/>
<path d="M5068 1779 c-19 -18 -28 -38 -28 -59 0 -44 -40 -653 -44 -665 -2 -9
-22 17 -135 174 -24 34 -82 94 -128 134 -94 81 -333 236 -412 267 -96 37 -87
71 -94 -357 -11 -581 -10 -633 9 -640 18 -7 88 26 120 55 18 17 22 36 27 138
19 357 30 519 33 523 2 3 42 -21 88 -53 158 -107 437 -444 487 -588 14 -42 24
-45 55 -23 42 29 54 76 64 250 6 91 19 274 30 406 11 132 20 251 20 265 l0 24
150 0 150 0 0 -484 0 -483 59 -27 c70 -31 104 -33 131 -6 19 19 20 33 20 510
l0 490 219 0 220 0 35 34 c20 18 36 41 36 50 0 32 -30 76 -57 82 -14 4 -222 5
-462 2 -240 -3 -465 -2 -501 2 -62 6 -66 5 -92 -21z"/>
<path d="M2295 1720 c-152 -34 -415 -164 -445 -220 -13 -24 -13 -870 -1 -903
16 -42 46 -43 120 -5 l66 33 2 469 c2 521 -2 493 71 517 54 18 178 7 237 -22
64 -30 144 -110 174 -174 46 -98 27 -253 -38 -307 -15 -13 -71 -45 -125 -73
-68 -35 -102 -58 -112 -77 -16 -32 -10 -69 15 -92 23 -21 169 -92 316 -154
260 -109 332 -116 453 -43 69 42 71 44 84 99 14 63 18 728 4 815 -10 64 -33
75 -108 53 -31 -9 -60 -22 -66 -29 -7 -8 -20 -146 -32 -343 -28 -455 -27 -451
-51 -457 -49 -13 -236 70 -318 141 l-44 38 72 58 c131 105 181 198 181 341 0
120 -24 179 -102 249 -33 30 -76 62 -96 72 -42 20 -194 28 -257 14z"/>
<path d="M6653 1549 l-261 -140 -121 61 -121 60 0 -102 0 -103 32 -18 32 -18
-32 -19 -32 -20 0 -101 c0 -55 3 -99 8 -97 4 2 58 33 119 71 l111 67 263 -151
c218 -126 266 -150 285 -143 40 16 714 387 714 393 -1 6 -723 401 -731 401 -2
0 -122 -64 -266 -141z m731 -218 c25 -28 17 -64 -17 -75 -36 -13 -61 2 -65 40
-6 49 49 72 82 35z"/>
<path d="M3314 1645 c-1 -5 -7 -45 -13 -87 -15 -105 -6 -123 67 -139 89 -18
653 15 703 42 18 9 21 18 17 57 -3 26 -12 64 -21 85 l-16 37 -93 1 c-51 1
-216 4 -367 8 -179 4 -275 3 -277 -4z"/>
<path d="M3306 1249 c-3 -13 -10 -55 -15 -93 -11 -78 0 -109 47 -121 79 -20
625 18 659 46 19 16 14 85 -10 142 l-16 37 -149 0 c-82 0 -230 3 -330 7 l-181
6 -5 -24z"/>
<path d="M7282 694 l-362 -196 -263 143 c-144 78 -266 142 -272 142 -5 0 -61
-28 -122 -63 l-113 -62 0 -115 0 -114 119 61 120 62 265 -145 265 -146 368
199 368 198 3 116 c1 64 -1 116 -5 116 -4 -1 -171 -89 -371 -196z"/>
<path d="M3296 838 c-3 -18 -10 -58 -15 -88 -13 -75 3 -105 61 -116 54 -9 187
-7 393 6 302 20 336 25 351 45 8 10 14 24 14 30 0 17 -28 108 -38 123 -10 15
-61 17 -499 27 l-262 6 -5 -33z"/>
<path d="M2056 378 c-21 -27 -23 -34 -10 -36 9 -2 26 6 38 17 l22 21 21 -21
c11 -12 28 -19 37 -17 14 3 14 7 -6 35 -31 44 -68 44 -102 1z"/>
<path d="M20 160 l0 -150 30 0 c30 0 30 1 30 54 l0 54 57 4 c46 4 61 10 80 32
33 39 31 90 -6 127 -28 27 -34 29 -110 29 l-81 0 0 -150z m148 88 c18 -18 14
-56 -7 -68 -11 -5 -33 -10 -50 -10 -30 0 -31 1 -31 45 l0 45 38 0 c21 0 43 -5
50 -12z"/>
<path d="M308 281 c-30 -27 -33 -34 -36 -103 -5 -97 13 -143 64 -164 115 -48
196 67 154 218 -23 80 -119 106 -182 49z m116 -43 c10 -14 16 -44 16 -78 0
-68 -19 -100 -60 -100 -39 0 -50 23 -50 101 0 44 5 68 17 81 22 25 59 23 77
-4z"/>
<path d="M550 160 l0 -150 30 0 30 0 0 60 c0 54 2 60 21 60 15 0 27 -15 47
-60 25 -55 30 -59 60 -60 17 0 32 2 32 5 0 3 -13 31 -29 63 l-29 57 23 17 c31
23 38 61 21 103 -19 44 -47 55 -137 55 l-69 0 0 -150z m144 84 c33 -33 11 -64
-46 -64 -38 0 -38 0 -38 40 0 39 1 40 34 40 19 0 42 -7 50 -16z"/>
<path d="M790 285 c0 -22 4 -25 40 -25 l40 0 0 -125 0 -125 30 0 30 0 0 125 0
125 40 0 c36 0 40 3 40 25 l0 25 -110 0 -110 0 0 -25z"/>
<path d="M1140 160 l0 -150 79 0 c70 0 83 3 108 24 24 21 28 32 31 95 9 149
-17 181 -145 181 l-73 0 0 -150z m142 83 c14 -12 18 -31 18 -84 0 -79 -13 -99
-66 -99 l-34 0 0 100 0 100 32 0 c17 0 40 -7 50 -17z"/>
<path d="M1410 160 l0 -150 100 0 100 0 0 25 c0 24 -2 25 -70 25 l-70 0 0 35
0 35 60 0 60 0 0 30 0 30 -60 0 -60 0 0 35 0 35 70 0 c68 0 70 1 70 25 l0 25
-100 0 -100 0 0 -150z"/>
<path d="M1750 161 l0 -151 30 0 c30 0 30 1 30 54 l0 54 56 4 c72 6 99 31 99
93 0 71 -26 89 -130 94 l-85 3 0 -151z m141 89 c43 -24 11 -80 -47 -80 -34 0
-34 0 -34 45 0 44 1 45 31 45 17 0 39 -5 50 -10z"/>
<path d="M2010 160 l0 -150 100 0 100 0 0 25 c0 24 -2 25 -70 25 l-70 0 0 35
0 35 60 0 60 0 0 30 0 30 -60 0 -60 0 0 35 0 35 70 0 c68 0 70 1 70 25 l0 25
-100 0 -100 0 0 -150z"/>
<path d="M2301 296 c-38 -21 -50 -55 -50 -136 -1 -90 12 -119 63 -144 32 -16
44 -17 76 -7 39 11 80 51 80 77 0 22 -53 17 -68 -6 -14 -22 -61 -27 -80 -8
-19 19 -16 153 4 172 22 22 61 20 76 -4 8 -12 24 -20 41 -20 25 0 27 3 22 23
-12 39 -52 67 -98 67 -23 -1 -53 -7 -66 -14z"/>
<path d="M2510 160 l0 -150 30 0 30 0 0 60 0 60 55 0 55 0 0 -60 0 -60 30 0
30 0 0 150 0 150 -30 0 -30 0 0 -60 0 -60 -55 0 -55 0 0 60 0 60 -30 0 -30 0
0 -150z"/>
<path d="M2800 160 l0 -150 100 0 100 0 0 25 c0 24 -2 25 -70 25 l-70 0 0 35
0 34 58 3 c53 3 57 5 57 28 0 23 -4 25 -57 28 l-58 3 0 34 0 35 70 0 c68 0 70
1 70 25 l0 25 -100 0 -100 0 0 -150z"/>
<path d="M3140 161 l0 -151 81 0 c76 0 82 2 110 29 28 28 29 33 29 120 0 81
-2 93 -24 118 -23 26 -31 28 -110 32 l-86 3 0 -151z m144 83 c20 -19 23 -153
4 -172 -7 -7 -29 -12 -50 -12 l-38 0 0 100 0 100 34 0 c19 0 42 -7 50 -16z"/>
<path d="M3410 160 l0 -150 105 0 105 0 0 25 c0 24 -2 25 -75 25 l-75 0 0 35
0 35 60 0 60 0 0 30 0 30 -60 0 -60 0 0 35 0 35 75 0 c73 0 75 1 75 25 l0 25
-105 0 -105 0 0 -150z"/>
<path d="M3760 160 c0 -127 2 -150 15 -150 11 0 15 11 15 40 0 30 7 48 31 75
17 19 35 33 40 30 4 -3 25 -37 46 -75 25 -45 44 -70 56 -70 9 0 17 3 17 6 0 3
-23 44 -50 91 l-51 85 28 35 c70 88 67 83 46 83 -12 0 -45 -32 -89 -86 l-69
-87 -3 87 c-2 67 -6 86 -17 86 -13 0 -15 -25 -15 -150z"/>
<path d="M4024 284 c-4 -17 -2 -29 7 -35 13 -9 205 -2 222 8 13 8 7 41 -9 47
-9 3 -60 6 -115 6 -98 0 -99 0 -105 -26z"/>
<path d="M4300 160 c0 -127 2 -150 15 -150 12 0 15 14 15 65 l0 65 38 0 c36 0
38 -3 71 -65 23 -45 39 -65 52 -65 17 0 16 6 -13 65 l-32 64 26 20 c49 39 44
116 -8 140 -14 6 -56 11 -94 11 l-70 0 0 -150z m158 108 c7 -7 12 -27 12 -45
0 -40 -21 -53 -89 -53 l-51 0 0 55 0 55 58 0 c32 0 63 -5 70 -12z"/>
<path d="M4593 286 c-26 -23 -28 -30 -31 -119 -4 -93 -3 -95 26 -127 25 -29
35 -33 77 -33 41 0 52 4 77 31 26 31 28 37 28 123 0 87 -1 92 -29 120 -39 39
-106 41 -148 5z m127 -28 c17 -18 20 -35 20 -100 0 -70 -3 -82 -25 -103 -29
-30 -64 -32 -96 -6 -21 16 -24 30 -27 98 -3 68 -1 81 18 106 28 35 80 37 110
5z"/>
<path d="M4840 160 c0 -125 2 -150 15 -150 11 0 15 21 17 108 l3 107 42 -87
c23 -49 47 -88 53 -88 6 0 31 42 55 93 l44 92 0 -112 c1 -94 4 -113 16 -113
13 0 15 23 15 151 0 189 -11 194 -81 39 l-48 -104 -50 107 c-71 153 -81 147
-81 -43z"/>
<path d="M5222 228 c-88 -237 -83 -218 -62 -218 12 0 21 10 25 30 l7 30 73 0
73 0 7 -30 c4 -20 13 -30 26 -30 16 0 17 3 8 28 -6 15 -28 74 -49 132 -52 143
-51 140 -65 140 -7 0 -26 -37 -43 -82z m72 -42 c14 -41 26 -77 26 -80 0 -3
-25 -6 -56 -6 -41 0 -55 3 -52 13 3 6 15 42 27 80 13 37 24 67 26 67 1 0 14
-33 29 -74z"/>
<path d="M5430 160 c0 -125 2 -150 15 -150 12 0 15 22 17 118 l3 117 78 -118
c110 -164 117 -162 117 33 0 143 -1 150 -20 150 -18 0 -20 -8 -22 -116 l-3
-117 -78 117 c-42 64 -84 116 -92 116 -13 0 -15 -24 -15 -150z"/>
<path d="M4026 164 c-4 -15 -4 -29 -1 -33 10 -9 198 -2 208 8 5 5 6 18 2 30
-6 19 -14 21 -105 21 -97 0 -98 0 -104 -26z"/>
<path d="M4025 50 c-3 -11 -3 -24 0 -30 8 -13 215 -13 235 0 12 7 12 13 4 27
-9 15 -28 18 -122 21 -103 2 -111 1 -117 -18z"/>
</g>
</svg>
