<?xml version="1.0" encoding="utf-8"?>
<!-- Svg Vector Icons : http://www.onlinewebfonts.com/icon -->
<!DOCTYPE svg PUBLIC "-//W3C//DTD SVG 1.1//EN" "http://www.w3.org/Graphics/SVG/1.1/DTD/svg11.dtd">
<svg version="1.1" xmlns="http://www.w3.org/2000/svg" xmlns:xlink="http://www.w3.org/1999/xlink" x="0px" y="0px" viewBox="0 0 1000 1000" enable-background="new 0 0 1000 1000" xml:space="preserve">
<metadata> Svg Vector Icons : http://www.onlinewebfonts.com/icon </metadata>
<g><path fill="#ffffff" d="M847,397.9L771.4,470l14.2,13.5c6.9,6.6,5.3,15.5,5.3,24.9c-0.4,50.6-93.1,188.7-250,200.7V479.6h142.9v-81.7H540.8v-29c36-15.8,61.2-51.6,61.2-93.5c0-56.4-45.7-102.1-102.1-102.1S397.9,219,397.9,275.4c0,41.8,25.2,77.7,61.2,93.5v29H316.3v81.7h142.9V709c-156.8-12-249.6-150.1-250-200.7c-0.1-9.4-1.6-18.3,5.3-24.9l14.2-13.5L153,397.9c-3.9,310.3,232.5,387.7,306.2,404.3v4H449l51,51l51-51h-10.2v-4C614.5,785.6,850.9,708.2,847,397.9 M500,234.6c22.6,0,40.8,18.3,40.8,40.8c0,22.6-18.3,40.8-40.8,40.8s-40.8-18.3-40.8-40.8C459.2,252.8,477.4,234.6,500,234.6"/><path d="M826.7,10H173.3C83.1,10,10,83.1,10,173.3v653.3C10,916.9,83.1,990,173.3,990h653.3c90.2,0,163.3-73.1,163.3-163.3V173.3C990,83.1,916.9,10,826.7,10 M908.3,797c0,61.5-49.9,111.4-111.4,111.4H203c-61.5,0-111.4-49.9-111.4-111.4V203c0-61.5,49.9-111.4,111.4-111.4H797c61.5,0,111.4,49.9,111.4,111.4V797z"/></g>
</svg>