<?xml version="1.0" encoding="utf-8"?>
<!-- Svg Vector Icons : http://www.onlinewebfonts.com/icon -->
<!DOCTYPE svg PUBLIC "-//W3C//DTD SVG 1.1//EN" "http://www.w3.org/Graphics/SVG/1.1/DTD/svg11.dtd">
<svg version="1.1" xmlns="http://www.w3.org/2000/svg" xmlns:xlink="http://www.w3.org/1999/xlink" x="0px" y="0px" viewBox="0 0 1000 1000" enable-background="new 0 0 1000 1000" xml:space="preserve">
<metadata> Svg Vector Icons : http://www.onlinewebfonts.com/icon </metadata>
<g><g fill="#ffffff" transform="translate(0.000000,512.000000) scale(0.100000,-0.100000)"><path d="M4618.5,4999.8c-1140.8-130.2-2149.5-819.2-2687.4-1839.5c-268-507.2-394.3-1029.8-394.3-1638.5c0-645.1,105.3-1242.3,338.8-1925.6c237.3-691,551.3-1316.9,1010.6-2011.7c484.3-735,1075.7-1449,1703.6-2055.7c335-323.5,388.6-350.3,520.6-271.8c86.1,53.6,564.7,522.6,821.2,805.8C7122.1-2618.3,7920.3-1255.4,8264.8,53.8c134,503.4,179.9,828.8,195.2,1330.3c15.3,520.6-23,803.9-160.8,1234.6c-252.7,788.6-800.1,1475.8-1527.5,1914.1C6147.8,4909.9,5349.7,5082.1,4618.5,4999.8z M5259.7,4599.8c754.2-72.7,1406.9-380.9,1927.5-913c606.8-620.2,907.3-1420.3,869-2321.8c-68.9-1669.1-980-3479.8-2647.2-5256.1c-168.4-178-329.2-340.7-357.9-357.9c-49.8-32.5-53.6-32.5-107.2,5.8c-72.7,51.7-541.7,551.3-800.1,851.8c-826.9,957.1-1450.9,1973.5-1820.3,2959.2c-363.7,972.4-472.8,1935.2-304.3,2668.3C2256.5,3269.5,3024,4115.5,4023.2,4446.6C4463.4,4594,4836.7,4640,5259.7,4599.8z"/><path d="M4836.7,3778.6c-155-38.3-363.7-181.8-419.2-290.9c-23-42.1-28.7-135.9-28.7-423v-371.3l-172.3-84.2c-95.7-45.9-185.7-105.3-201-128.2c-23-32.5-28.7-112.9-28.7-357.9c0-289-3.8-317.7-36.4-335c-19.1-11.5-176.1-72.7-346.5-135.9c-170.4-63.2-327.3-124.4-346.5-135.9c-44-23-93.8-114.8-93.8-172.3c0-23,151.2-380.9,335-796.3c185.7-417.3,333.1-759.9,329.2-763.7c-17.2-19.1-199.1,124.4-258.4,202.9c-78.5,103.3-124.4,132.1-210.6,134c-91.9,0-195.2-103.4-195.2-195.3c0-122.5,185.7-344.5,384.7-461.3c382.8-224,974.3-206.7,1338,42.1l114.8,78.5l114.8-78.5c365.6-248.8,953.2-268,1338-42.1c118.7,68.9,281.3,225.9,340.7,327.3c82.3,141.7,23,294.8-124.4,321.6c-86.1,17.2-166.5-26.8-243.1-132.1c-53.6-74.6-235.4-216.3-252.7-197.2c-3.8,3.8,143.6,346.5,329.2,763.7c183.8,415.4,335,773.3,335,796.3c0,57.4-49.8,149.3-93.8,172.3c-19.1,11.5-176.1,72.7-346.4,135.9s-327.3,124.4-346.4,135.9c-32.5,17.2-36.4,45.9-36.4,325.4c0,225.9-7.7,319.6-26.8,357.9c-19.1,36.4-80.4,78.5-201,137.8l-174.2,84.2v377.1c0,357.9-1.9,379-44,440.2C5432,3715.5,5093.2,3839.9,4836.7,3778.6z M5158.3,3344.1c53.6-26.8,53.6-28.7,53.6-227.8c0-216.3-5.7-223.9-95.7-172.3c-26.8,15.3-78.5,26.8-114.8,26.8c-36.4,0-88-11.5-114.8-26.8c-90-51.7-95.7-44-95.7,172.3c0,185.7,3.8,201,42.1,222C4943.9,3397.7,5051,3399.6,5158.3,3344.1z M5317.1,2385.2l296.7-149.3V2098c0-76.6-7.7-139.7-17.2-139.7c-9.6,0-141.6,47.9-294.8,105.3c-151.2,57.4-287.1,105.3-300.5,105.3c-13.4,0-149.3-47.9-300.5-105.3c-153.1-57.4-285.2-105.3-294.8-105.3c-9.6,0-17.2,63.2-17.2,139.7v137.8l292.9,147.4c158.9,80.4,302.4,147.4,313.9,147.4C5008.9,2532.5,5154.4,2465.6,5317.1,2385.2z M4790.7,802.2V-47.7l-80.4-68.9c-82.3-70.8-243.1-141.6-342.6-151.2l-57.4-3.8l-323.5,727.4c-178,400-325.4,738.8-329.2,752.2c-3.8,17.2,170.4,91.9,539.8,233.5c300.5,112.9,557,206.7,570.4,208.6C4785,1652.1,4790.7,1470.2,4790.7,802.2z M5784.2,1447.3c300.5-111,553.2-208.6,560.8-214.4c5.7-5.7-137.8-346.5-321.6-758l-331.2-746.5l-57.4,3.8c-99.5,9.6-260.3,80.4-342.6,151.2l-80.4,68.9v849.9c0,467,5.7,849.9,13.4,849.9C5232.9,1652.1,5483.7,1560.2,5784.2,1447.3z"/></g></g>
</svg>