<svg xmlns="http://www.w3.org/2000/svg" width="655.359" height="655.359" fill-rule="evenodd" clip-rule="evenodd" image-rendering="optimizeQuality" shape-rendering="geometricPrecision" text-rendering="geometricPrecision" viewBox="0 0 6.827 6.827"><path fill="none" d="M0 0h6.827v6.827H0z"/><path fill="none" d="M.853.853h5.12v5.12H.853z"/><path fill="none" d="M.853.853h5.12v5.12H.853z"/><path fill="#f9a825" fill-rule="nonzero" d="M2.272 2.652v.644h-.214v-.644zM4.552 2.652v.644h-.214v-.644z"/><path fill="#f9a825" fill-rule="nonzero" d="M1.493 4.039v-.396c0-.105.054-.199.14-.265a.497.497 0 0 1 .3-.096h2.96c.116 0 .222.037.3.096.087.066.14.16.14.265v.396H5.12v-.396c0-.035-.021-.07-.056-.095a.283.283 0 0 0-.17-.053h-2.96a.283.283 0 0 0-.172.053c-.034.026-.055.06-.055.095v.396h-.214z"/><path fill="#f9a825" fill-rule="nonzero" d="M3.52 3.388v.65h-.213v-.65z"/><path fill="#d32f2f" d="M3.735 2.479h1.49c.014-.295-.088-.547-.363-.706l-.014-.008-.012.012a.488.488 0 0 1-.712 0l-.011-.012-.015.008c-.274.16-.377.411-.363.706z"/><path fill="#ef5350" d="M4.48 1.83a.448.448 0 1 1 .001-.896.448.448 0 0 1-.001.895z"/><path fill="#d32f2f" d="M1.388 2.479h1.49c.014-.295-.088-.547-.363-.706L2.5 1.765l-.012.012a.488.488 0 0 1-.712 0l-.011-.012-.014.008c-.275.16-.378.411-.364.706z"/><path fill="#ef5350" d="M2.133 1.83a.448.448 0 1 1 .001-.896.448.448 0 0 1 0 .895z"/><path fill="#039be5" d="M4.481 5.892h1.491c.014-.295-.089-.547-.364-.705l-.014-.009-.011.012a.488.488 0 0 1-.713 0l-.01-.012-.015.009c-.275.158-.378.41-.364.705z"/><path fill="#29b6f6" d="M5.227 5.243a.448.448 0 1 1 0-.896.448.448 0 0 1 0 .896z"/><path fill="#039be5" d="M.855 5.892h1.49c.014-.295-.088-.547-.363-.705l-.014-.009-.012.012a.488.488 0 0 1-.712 0l-.011-.012-.015.009c-.274.158-.377.41-.363.705z"/><path fill="#29b6f6" d="M1.6 5.243a.448.448 0 1 1 .001-.896.448.448 0 0 1-.001.896z"/><path fill="#039be5" d="M2.668 5.892h1.49c.014-.295-.088-.547-.363-.705l-.014-.009-.012.012a.488.488 0 0 1-.712 0l-.011-.012-.014.009c-.275.158-.378.41-.364.705z"/><path fill="#29b6f6" d="M3.413 5.243a.448.448 0 1 1 .001-.896.448.448 0 0 1 0 .896z"/></svg>