<svg xmlns="http://www.w3.org/2000/svg" fill="none" viewBox="0 0 24 24"><path fill="#e2e2e2" d="M12.75 2.00001C12.75 1.64992 12.5078 1.3464 12.1664 1.26871C11.8251 1.19103 11.4754 1.35985 11.3239 1.67546L5.32386 14.1755C5.21231 14.4079 5.22793 14.6813 5.36521 14.8994C5.5025 15.1176 5.74222 15.25 6 15.25H11.25V22C11.25 22.3501 11.4922 22.6536 11.8336 22.7313C12.1749 22.809 12.5246 22.6402 12.6761 22.3246L18.6761 9.82456C18.7877 9.59216 18.7721 9.31877 18.6348 9.10058C18.4975 8.8824 18.2578 8.75001 18 8.75001H12.75V2.00001Z" class="colorffc44d svgShape"/><path fill="#9d9d9d" fill-rule="evenodd" d="M1.46967 1.46967C1.76256 1.17678 2.23744 1.17678 2.53033 1.46967L22.5303 21.4697C22.8232 21.7626 22.8232 22.2374 22.5303 22.5303C22.2374 22.8232 21.7626 22.8232 21.4697 22.5303L1.46967 2.53033C1.17678 2.23744 1.17678 1.76256 1.46967 1.46967Z" class="coloree4d4d svgShape" clip-rule="evenodd"/></svg>