<svg xmlns="http://www.w3.org/2000/svg" enable-background="new 0 0 48 48" viewBox="0 0 48 48"><path fill="#e2e2e2" d="M28 25.8c-.8-.8-2-.8-2.8 0l-3.6 3.6-3-3 3.6-3.6c.8-.8.8-2 0-2.8-.8-.8-2-.8-2.8 0l-3.6 3.6-1.3-1.3c-.4-.4-.9-.6-1.4-.6s-1 .2-1.4.6l-5.6 5.6c-3.4 3.4-3.8 8.6-1.2 12.5l-3.8 3.8c-.8.8-.8 2 0 2.8.4.4.9.6 1.4.6s1-.2 1.4-.6l3.8-3.8c1.6 1.1 3.5 1.6 5.5 1.6 2.6 0 5.1-1 7-2.9l5.6-5.6c.8-.8.8-2 0-2.8l-1.3-1.3 3.6-3.6C28.8 27.8 28.8 26.5 28 25.8zM46.9 1.1c-.8-.8-2-.8-2.8 0l-3.8 3.8c-1.6-1.1-3.5-1.6-5.5-1.6-2.6 0-5.1 1-7 2.9l-5.6 5.6c-.4.4-.6.9-.6 1.4s.2 1 .6 1.4l11.2 11.2c.4.4.9.6 1.4.6s1-.2 1.4-.6l5.6-5.6c3.4-3.4 3.8-8.6 1.2-12.5l3.8-3.8C47.7 3.1 47.7 1.8 46.9 1.1z" class="color000000 svgShape"/></svg>