<svg xmlns="http://www.w3.org/2000/svg" viewBox="0 0 26 26"><path fill="#e2e2e2" d="M25 5.73C25 3.12 22.88 1 20.27 1H5.74C3.13 1 1 3.12 1 5.73v14.53A4.75 4.75 0 0 0 5.74 25h14.53c2.61 0 4.73-2.13 4.73-4.74V5.73zM13 21.49c-4.68 0-8.49-3.81-8.49-8.49 0-4.69 3.81-8.49 8.49-8.49 4.69 0 8.49 3.8 8.49 8.49 0 4.68-3.8 8.49-8.49 8.49z" class="color000000 svgShape"/><path fill="#e2e2e2" d="M11.15 11.75c-.66-.65-1.82-.65-2.48 0-.692.69-.668 1.79 0 2.48.69.67 1.77.689 2.48 0a1.764 1.764 0 0 0 0-2.48zm6.18.01a1.76 1.76 0 0 0-2.48 0 1.764 1.764 0 0 0 0 2.48c.621.62 1.724.734 2.48 0 .717-.806.662-1.818 0-2.48z" class="color000000 svgShape"/></svg>