<?xml version="1.0" standalone="no"?>
<!DOCTYPE svg PUBLIC "-//W3C//DTD SVG 20010904//EN"
 "http://www.w3.org/TR/2001/REC-SVG-20010904/DTD/svg10.dtd">
<svg version="1.0" xmlns="http://www.w3.org/2000/svg"
 width="512.000000pt" height="512.000000pt" viewBox="0 0 512.000000 512.000000"
 preserveAspectRatio="xMidYMid meet">

<g transform="translate(0.000000,512.000000) scale(0.100000,-0.100000)"
fill="#000000" stroke="none" >
<path fill="#ffffff" d="M1085 4330 l-790 -790 790 -790 790 -790 330 330 330 330 -225 225
-225 225 415 0 c439 0 497 -5 645 -50 175 -54 369 -185 490 -328 309 -368 336
-883 68 -1289 -55 -83 -183 -213 -266 -271 -160 -110 -330 -174 -497 -187 -41
-4 -85 -8 -97 -11 l-23 -4 0 -465 0 -465 53 0 c101 0 305 30 438 64 361 93
655 261 920 525 386 387 590 877 589 1419 -1 531 -208 1029 -584 1405 -263
264 -577 442 -934 532 -208 52 -266 57 -756 62 l-458 5 223 224 224 224 -330
330 -330 330 -790 -790z"/>
</g>
</svg>
