<svg xmlns="http://www.w3.org/2000/svg" enable-background="new 0 0 512 512" viewBox="0 0 512 512"><path fill="#e2e2e2" d="M100.489,103.96c-15.193,0-27.627,12.426-27.627,27.627v220.696c0,46.973,26.403,89.876,68.383,110.976   c34.148,17.187,97.384,18.418,132.841,2.997c23.178-10.139,42.747-27.094,56.021-48.35l106.829-162.995   c2.146-3.374,2.762-7.211,1.687-11.207c-0.994-3.91-3.451-6.907-7.059-8.674c-24.175-12.047-52.801-5.444-68.993,16.188   l-27.551,36.688V110.867c0-15.204-12.432-27.555-27.628-27.555c-15.19,0-27.551,12.352-27.551,27.555v110.351   c0,3.839-3.146,6.907-6.907,6.907c-3.837,0-6.907-3.068-6.907-6.907V62.592c0-15.188-12.431-27.627-27.631-27.627   c-15.117,0-27.547,12.438-27.547,27.627v158.628c0,3.837-3.07,6.905-6.907,6.905c-3.838,0-6.905-3.068-6.905-6.905V83.312   c0-15.189-12.433-27.627-27.627-27.627c-15.117,0-27.55,12.438-27.55,27.627v137.906c0,3.837-3.147,6.905-6.905,6.905   c-3.767,0-6.906-3.068-6.906-6.905v-89.632C128.044,116.385,115.606,103.96,100.489,103.96z" class="color000000 svgShape"/></svg>