<svg xmlns="http://www.w3.org/2000/svg" enable-background="new 0 0 50 50" viewBox="0 0 50 50"><path fill="#e2e2e2" d="M46.8 46.7c-.4.9-1.3 2-3.5 2.2 0 0-.1 0-.1 0 0 0-.1 0-.1 0-.1 0-.1 0-.2 0-2.2-.3-3.2-1.4-3.6-2.3-1.5-3.3 2.2-8.9 2.8-9.8 0 0 0-.1.1-.1 0 0 .1-.1.1-.1 0 0 0 0 .1-.1 0 0 0 0 0 0 0 0 .1-.1.1-.1.1 0 .1-.1.2-.1.1 0 .2 0 .2 0 .1 0 .2 0 .2 0 .1 0 .2 0 .2.1 0 0 .1 0 .1.1 0 0 0 0 .1 0 .1.1.1.1.2.2 0 0 .1.1.1.1C44.6 38 48.2 43.5 46.8 46.7zM46.3 32.3c-.7.7-1.6 1.2-2.6 1.2h-2.1c-1.6 0-2.9-1.1-3.3-2.6-.6-2.4-2.4-6.5-7-6.9-.8.8-2.8 2.4-5.2 2.4-1.7 0-3.3-.8-4.6-2.3C21.2 24 21.1 24 20.9 24h-7.2v-9.7h6.1c.2 0 .4-.1.5-.3.4-.9 1.3-1.5 2.3-1.5h6.5c1 0 2 .6 2.4 1.6.1.3.3.4.4.4 3.2.6 13.5 3.5 15.1 15.2C47.2 30.6 46.9 31.6 46.3 32.3zM37.1 5.2c0 2.3-1.9 4.2-4.2 4.2-1.2 0-2.3-.5-3.1-1.4H29v2.4h-6.1V8h-.8c-.8.9-1.9 1.4-3.1 1.4-2.3 0-4.2-1.9-4.2-4.2S16.7 1 19 1c1.2 0 2.3.5 3.1 1.4h7.7C30.6 1.5 31.7 1 32.9 1 35.2 1 37.1 2.9 37.1 5.2zM11.7 11.2v15.5c0 .5-.4 1-1 1H3.9c-.6 0-1-.5-1-1V11.2c0-.6.4-1 1-1h6.9C11.3 10.2 11.7 10.7 11.7 11.2z" class="color000000 svgShape"/></svg>