<svg xmlns="http://www.w3.org/2000/svg" enable-background="new 0 0 26 26" viewBox="0 0 26 26"><circle cx="11.009" cy="5.993" r="5" fill="#4bb863" class="color000000 svgShape"/><path fill="#4bb863" d="M13.9975 19.00255c0-1.1199.62-2.1001 1.53-2.6101.24-1.8799 1.51-3.44 3.23-4.0698-.83-.6702-1.83-1.1202-2.93-1.2601-1.25 1.2-2.95 1.93-4.82 1.93s-3.57-.73-4.83-1.94c-2.92.3999-5.17 2.91-5.17 5.94v1c0 1.1001.9 2 2 2h10.99V19.00255zM16.9924 25.00745h7.0001c.5523 0 1-.4478 1-1v-5c0-.5525-.4477-1-1-1h-.4997v-1.0003c0-1.6543-1.3457-3-3-3s-3 1.3457-3 3v1.0003h-.5004c-.5523 0-1 .4475-1 1v5C15.9924 24.55965 16.4401 25.00745 16.9924 25.00745zM19.4928 17.00715c0-.5517.4483-1 1-1 .5518 0 1 .4483 1 1v1h-2V17.00715z" class="color000000 svgShape"/></svg>