<svg xmlns="http://www.w3.org/2000/svg" viewBox="0 0 64 64"><ellipse cx="32" cy="47" fill="#4fff76" class="colorffd54f svgShape" rx="25" ry="10"/><path fill="#19e646" d="M62,46H57.893C56.734,40.318,45.781,36,32,36S7.266,40.318,6.107,46H2v2H6.107C7.238,53.544,17.693,57.786,31,57.99V62h2V57.99c13.307-.2,23.763-4.446,24.894-9.99H62ZM33,55.98V51H31v4.98C18.286,55.784,9.487,51.927,8.186,48H22V46H8.186C9.521,41.969,18.742,38,32,38s22.479,3.969,23.814,8H42v2H55.813C54.51,51.925,45.714,55.784,33,55.98Z" class="colore64a19 svgShape"/><path fill="#4bb863" d="M41,28V18.916A4.916,4.916,0,0,0,36.084,14H27.916A4.916,4.916,0,0,0,23,18.916V28a2,2,0,0,0,2,2h2l1,18h8l1-18h2A2,2,0,0,0,41,28Z" class="color4caf50 svgShape"/><circle cx="32" cy="7" r="5" fill="#4bb863" class="color4caf50 svgShape"/><rect width="2" height="18" x="31" y="30" fill="#388e4b" class="color388e3c svgShape"/><rect width="2" height="11" x="25" y="19" fill="#388e4b" class="color388e3c svgShape"/><rect width="2" height="11" x="37" y="19" fill="#388e4b" class="color388e3c svgShape"/></svg>