<svg xmlns="http://www.w3.org/2000/svg" viewBox="0 0 1024 1024"><path fill="#efb341" d="M947.9 792.6c-12.6-23.3-25.3-46.6-37.9-70l-70.5-130.2c-28.2-52-56.3-104.1-84.5-156.1-27.2-50.2-54.3-100.3-81.5-150.5-20-36.9-39.9-73.8-59.9-110.7-5.4-10-10.8-20-16.2-29.9-5.6-10.4-11.5-20.4-20-28.9-29.6-29.8-78.7-35.5-114.3-13-15.3 9.7-26.3 23.4-34.8 39.1-13 24-26 48-39 72.1l-71.1 131.4C289.7 398.2 261.4 450.6 233 503c-26.9 49.7-53.8 99.3-80.7 149-19.7 36.4-39.4 72.7-59.1 109.1l-15.6 28.8c-7.3 13.5-13 27.2-14.8 42.8-5.1 44.1 25.8 87.5 68.5 98.3 11.3 2.9 22.4 3 33.8 3h705.1c23.2-.5 45.2-9.2 62.2-25 16.4-15.2 26-36 28.7-58 2.6-20.7-3.4-40.3-13.2-58.4zM472 357.2c0-22.4 18.3-39 40-40 21.6-1 40 19.1 40 40v281.7c0 22.4-18.3 39-40 40-21.6 1-40-19.1-40-40V357.2zm40 457.9c-22.5 0-40.7-18.2-40.7-40.7 0-22.5 18.2-40.7 40.7-40.7 22.5 0 40.7 18.2 40.7 40.7 0 22.5-18.2 40.7-40.7 40.7z" class="color000000 svgShape"/></svg>